<?xml version="1.0" standalone="no"?>
<!DOCTYPE svg PUBLIC "-//W3C//DTD SVG 20010904//EN"
 "http://www.w3.org/TR/2001/REC-SVG-20010904/DTD/svg10.dtd">
<svg version="1.0" xmlns="http://www.w3.org/2000/svg"
 width="256.000000pt" height="256.000000pt" viewBox="0 0 256.000000 256.000000"
 preserveAspectRatio="xMidYMid meet">

<g transform="translate(0.000000,256.000000) scale(0.100000,-0.100000)"
fill="#000000" stroke="none">
<path d="M1195 2545 c-403 -63 -758 -316 -941 -668 l-46 -89 934 4 c1035 5
977 1 1123 73 72 35 168 107 173 130 2 7 -24 46 -56 86 -281 352 -745 534
-1187 464z"/>
<path d="M784 1663 l-621 -3 -11 -38 c-6 -20 -19 -80 -28 -132 -28 -160 -10
-455 35 -573 l11 -27 387 1 c214 1 618 4 898 8 l510 6 57 27 c331 155 287 630
-67 722 -47 13 -109 16 -305 14 -135 -2 -524 -4 -866 -5z"/>
<path d="M513 763 c-161 -2 -293 -6 -293 -8 0 -3 12 -29 26 -58 116 -232 346
-456 587 -571 273 -131 590 -160 885 -81 260 70 517 240 678 451 l59 77 -50
43 c-66 58 -167 110 -261 134 -73 19 -109 20 -708 18 -347 -2 -763 -4 -923 -5z"/>
</g>
</svg>
